<svg width="97" height="167" viewBox="0 0 97 167" fill="none" xmlns="http://www.w3.org/2000/svg">
<g opacity="0.4">
<circle cx="48.2848" cy="119.715" r="46.7848" fill="url(#paint0_linear_188_53)" stroke="#C0D3E5"/>
<path d="M91.3954 101.988C94.642 94.7825 96.0309 86.8782 95.4349 78.9975C94.839 71.1168 92.2772 63.5112 87.9839 56.8759C83.6905 50.2406 77.8025 44.7873 70.8581 41.0144C63.9136 37.2415 56.1342 35.2694 48.231 35.2784C40.3279 35.2873 32.553 37.2771 25.6171 41.0658C18.6813 44.8544 12.8057 50.3212 8.5274 56.9662C4.24914 63.6113 1.70469 71.2227 1.12665 79.1047C0.548616 86.9867 1.95542 94.8879 5.21848 102.086" stroke="#1A3BA2"/>
<path d="M91.3954 63.7097C94.642 56.5042 96.0309 48.5999 95.4349 40.7192C94.839 32.8385 92.2772 25.2329 87.9839 18.5976C83.6905 11.9623 77.8025 6.50893 70.8581 2.73604C63.9136 -1.03686 56.1342 -3.00895 48.231 -2.99997C40.3279 -2.99099 32.553 -1.00122 25.6171 2.78745C18.6813 6.57612 12.8057 12.0428 8.5274 18.6879C4.24914 25.3329 1.70469 32.9443 1.12665 40.8264C0.548616 48.7084 1.95542 56.6095 5.21848 63.8077" stroke="#1A3BA2"/>
<path d="M48.2849 99.0297C45.5417 99.0297 42.9108 100.119 40.971 102.059C39.0312 103.999 37.9414 106.63 37.9414 109.373C37.9414 112.117 39.0312 114.747 40.971 116.687C42.9107 118.627 45.5417 119.717 48.2849 119.717" stroke="#1A3BA2"/>
<path d="M48.2849 119.715C51.0282 119.715 53.6591 120.805 55.5989 122.745C57.5387 124.685 58.6284 127.316 58.6284 130.059C58.6284 132.802 57.5387 135.433 55.5989 137.373C53.6591 139.313 51.0282 140.402 48.2849 140.402" stroke="#1A3BA2"/>
</g>
<defs>
<linearGradient id="paint0_linear_188_53" x1="95.5695" y1="167" x2="-10.8358" y2="88.4671" gradientUnits="userSpaceOnUse">
<stop stop-color="#C0D3E5"/>
<stop offset="1" stop-color="white"/>
</linearGradient>
</defs>
</svg>
