<svg width="1440" height="320" viewBox="0 0 1440 320" fill="none" xmlns="http://www.w3.org/2000/svg">
<path d="M292.401 320C286.882 303.501 279.473 282.804 270.177 257.91H131.167L109.378 320H0L122.015 4.77614H282.379L405.266 320H292.401ZM245.338 190.176C234.299 159.783 222.969 129.389 211.348 98.9959L200.89 70.7734C190.722 97.1144 175.76 136.915 156.005 190.176H245.338Z" fill="url(#paint0_linear_188_267)" style="mix-blend-mode:soft-light"/>
<path d="M681.7 91.1805C647.129 89.4437 621.564 88.4306 605.005 88.1411V236.635C621.854 236.346 647.419 235.332 681.7 233.596V320H428.518V233.596C461.927 235.332 487.347 236.346 504.778 236.635V88.1411C487.347 88.4306 461.927 89.4437 428.518 91.1805V4.77614H681.7V91.1805Z" fill="url(#paint1_linear_188_267)" style="mix-blend-mode:soft-light"/>
<path d="M856.066 0C910.682 0 953.823 6.65762 985.489 19.9729C1017.16 32.9986 1039.23 51.2347 1051.73 74.6812C1064.51 97.8381 1070.9 126.35 1070.9 160.217C1070.9 192.347 1063.64 220.425 1049.11 244.45C1034.59 268.476 1012.8 287.146 983.746 300.461C954.695 313.487 918.962 320 876.547 320C850.691 320 824.4 320 797.673 320C770.945 320 743.928 319.855 716.619 319.566C718.943 262.542 720.106 209.426 720.106 160.217C720.106 110.43 718.943 58.4713 716.619 4.34192C751.19 1.44731 797.673 0 856.066 0ZM888.748 233.596C915.766 233.596 933.778 227.083 942.784 214.057C951.79 201.031 956.293 183.085 956.293 160.217C956.293 138.218 951.499 120.416 941.912 106.811C932.616 93.2067 914.894 86.4043 888.748 86.4043C860.569 86.4043 839.506 87.2727 825.562 89.0095V233.596H888.748Z" fill="url(#paint2_linear_188_267)" style="mix-blend-mode:soft-light"/>
<path d="M1312.76 158.48L1440 320H1314.06L1251.31 234.898L1188.13 320H1062.19L1189.43 158.48L1066.55 4.77614H1192.48L1251.31 82.9308L1309.7 4.77614H1435.64L1312.76 158.48Z" fill="url(#paint3_linear_188_267)" style="mix-blend-mode:soft-light"/>
<defs>
<linearGradient id="paint0_linear_188_267" x1="720" y1="0" x2="720" y2="320" gradientUnits="userSpaceOnUse">
<stop stop-color="#0065B1"/>
<stop offset="1" stop-color="#012D61"/>
</linearGradient>
<linearGradient id="paint1_linear_188_267" x1="720" y1="0" x2="720" y2="320" gradientUnits="userSpaceOnUse">
<stop stop-color="#0065B1"/>
<stop offset="1" stop-color="#012D61"/>
</linearGradient>
<linearGradient id="paint2_linear_188_267" x1="720" y1="0" x2="720" y2="320" gradientUnits="userSpaceOnUse">
<stop stop-color="#0065B1"/>
<stop offset="1" stop-color="#012D61"/>
</linearGradient>
<linearGradient id="paint3_linear_188_267" x1="720" y1="0" x2="720" y2="320" gradientUnits="userSpaceOnUse">
<stop stop-color="#0065B1"/>
<stop offset="1" stop-color="#012D61"/>
</linearGradient>
</defs>
</svg>
