<svg width="20" height="19" viewBox="0 0 20 19" fill="none" xmlns="http://www.w3.org/2000/svg">
<path d="M19.2593 1.30148C19.1283 1.25003 15.9466 0 9.99952 0C9.94479 0 9.89206 0.00611359 9.84134 0.0137543C9.8318 0.0137543 9.82176 0.0157927 9.81222 0.0178303C9.70877 0.0336212 9.60884 0.0652018 9.51494 0.109009C9.5069 0.113084 9.49736 0.117161 9.48933 0.120727C9.44815 0.14263 9.40697 0.164533 9.36831 0.190002C9.36429 0.19204 9.35877 0.196113 9.35475 0.198151C9.31357 0.226167 9.27441 0.257751 9.23725 0.289332C9.22771 0.297483 9.21766 0.30716 9.20812 0.317348C9.17699 0.345364 9.14736 0.374907 9.12024 0.408526C9.11422 0.414639 9.10869 0.420244 9.10267 0.426357C9.07153 0.466089 9.04191 0.507857 9.01479 0.549117C9.00876 0.558795 9.00525 0.566944 8.99922 0.577132C8.9701 0.62858 8.94248 0.680537 8.91887 0.736059L4.89608 10.2065C3.98265 8.2841 3.21635 5.97914 2.55702 3.21574C3.13199 3.06088 3.96306 2.87445 5.03668 2.71603L4.70023 0.367266C2.15428 0.742173 0.796947 1.27957 0.740203 1.30148C0.204399 1.51796 -0.0968968 2.0951 0.0281409 2.66408C0.966677 6.92914 2.16734 10.3114 3.72203 12.9653L2.44905 15.9605C2.93816 16.7918 3.46392 17.5493 4.02734 18.24L5.29479 15.2586C6.48792 16.7404 7.85078 17.9186 9.4135 18.837C9.41551 18.839 9.41551 18.839 9.41752 18.8411C9.45267 18.8609 9.48782 18.8767 9.52297 18.8925C9.53452 18.8986 9.54657 18.9042 9.55812 18.9103C9.58574 18.9221 9.61286 18.9302 9.64048 18.9384C9.75999 18.9781 9.879 19 10.0005 19H10.0025C10.1221 19 10.2431 18.9781 10.3606 18.9384C10.3882 18.9302 10.4173 18.9205 10.4444 18.9103C10.456 18.9042 10.466 18.8986 10.4776 18.8925C10.5147 18.8767 10.5499 18.8609 10.583 18.8411C10.585 18.839 10.587 18.839 10.5891 18.837C12.1498 17.9186 13.5126 16.7404 14.7078 15.2586L15.9732 18.24C16.5366 17.5498 17.0604 16.7918 17.5515 15.9625L16.2785 12.9674C17.8332 10.3109 19.0339 6.92914 19.9724 2.66408C20.0959 2.09459 19.7951 1.51746 19.2593 1.30148ZM9.99952 16.4174C8.59749 15.4873 7.39482 14.2948 6.35234 12.7692L9.99952 4.18561L13.6467 12.7692C12.6042 14.2948 11.4016 15.4868 9.99952 16.4174ZM15.1055 10.206L11.7947 2.41601C14.4878 2.54488 16.3925 2.93762 17.4425 3.21523C16.7832 5.98118 16.0169 8.2841 15.1055 10.206Z" fill="white"/>
</svg>