<svg width="50" height="50" viewBox="0 0 50 50" fill="none" xmlns="http://www.w3.org/2000/svg">
<path d="M22.8678 3.13257C24.201 2.42437 25.799 2.42438 27.1322 3.13257L44.2374 12.2182C45.7224 13.007 46.6506 14.5511 46.6506 16.2325V33.7675C46.6506 35.4489 45.7224 36.993 44.2374 37.7818L27.1322 46.8674C25.799 47.5756 24.201 47.5756 22.8678 46.8674L5.76257 37.7818C4.2776 36.993 3.34937 35.4489 3.34937 33.7675V16.2325C3.34937 14.5511 4.2776 13.007 5.76257 12.2182L22.8678 3.13257Z" fill="#1A3BA2"/>
<path d="M25 3.58511C26.4063 2.77314 28.139 2.77314 29.5454 3.58511L44.6824 12.3244C46.0887 13.1364 46.9551 14.637 46.9551 16.2609V33.7395C46.9551 35.3635 46.0887 36.864 44.6824 37.676L29.5454 46.4153C28.139 47.2273 26.4063 47.2273 25 46.4153L9.86301 37.676C8.45664 36.864 7.59029 35.3635 7.59029 33.7395V16.2609C7.59029 14.637 8.45665 13.1364 9.86302 12.3244L25 3.58511Z" fill="white"/>
<path d="M21.6364 18V33M21.6364 18L25.2727 21.3333M21.6364 18L18 21.3333M32.5455 33V18M32.5455 33L36.1818 29.6667M32.5455 33L28.9091 29.6667" stroke="#1A3BA2" stroke-width="2" stroke-linecap="round" stroke-linejoin="round"/>
</svg>
