<svg width="46" height="171" viewBox="0 0 46 171" fill="none" xmlns="http://www.w3.org/2000/svg">
<g opacity="0.4">
<ellipse cx="64.7502" cy="-2.4375" rx="64.75" ry="26.5625" fill="url(#paint0_linear_188_70)"/>
<path d="M124.019 35.0625C124.019 38.5673 122.423 41.9439 119.46 45.0571C116.495 48.1729 112.18 51.0017 106.81 53.3881C96.0719 58.1605 81.2018 61.125 64.7502 61.125C48.2986 61.125 33.4285 58.1605 22.69 53.3881C17.3202 51.0017 13.0055 48.1729 10.0401 45.0571C7.07715 41.9439 5.48096 38.5673 5.48096 35.0625C5.48096 31.5577 7.07715 28.1811 10.0401 25.0679C13.0055 21.9521 17.3202 19.1233 22.69 16.7369C33.4285 11.9645 48.2986 9 64.7502 9C81.2018 9 96.0719 11.9645 106.81 16.7369C112.18 19.1233 116.495 21.9521 119.46 25.0679C122.423 28.1811 124.019 31.5577 124.019 35.0625Z" stroke="#1A3BA2"/>
<path d="M119.039 71C119.039 77.5879 113.164 83.7144 103.284 88.2228C93.4482 92.7109 79.825 95.5 64.7504 95.5C49.6758 95.5 36.0525 92.7109 26.2166 88.2228C16.3363 83.7144 10.4619 77.5879 10.4619 71C10.4619 64.4121 16.3363 58.2856 26.2166 53.7772C36.0525 49.2891 49.6758 46.5 64.7504 46.5C79.825 46.5 93.4482 49.2891 103.284 53.7772C113.164 58.2856 119.039 64.4121 119.039 71Z" stroke="#1A3BA2"/>
<path d="M114.058 106.938C114.058 113.998 108.684 120.506 99.7344 125.279C90.8067 130.04 78.4389 133 64.7503 133C51.0618 133 38.6939 130.04 29.7662 125.279C20.8171 120.506 15.4426 113.998 15.4426 106.938C15.4426 99.877 20.8171 93.3687 29.7662 88.5962C38.6939 83.835 51.0618 80.875 64.7503 80.875C78.4389 80.875 90.8067 83.835 99.7344 88.5962C108.684 93.3687 114.058 99.877 114.058 106.938Z" stroke="#1A3BA2"/>
<path d="M109.077 144.438C109.077 151.525 104.226 158.03 96.1928 162.79C88.1704 167.544 77.0549 170.5 64.7503 170.5C52.4456 170.5 41.3302 167.544 33.3077 162.79C25.2744 158.03 20.4233 151.525 20.4233 144.438C20.4233 137.35 25.2744 130.845 33.3077 126.085C41.3302 121.331 52.4456 118.375 64.7503 118.375C77.0549 118.375 88.1704 121.331 96.1928 126.085C104.226 130.845 109.077 137.35 109.077 144.438Z" stroke="#1A3BA2"/>
</g>
<defs>
<linearGradient id="paint0_linear_188_70" x1="129.5" y1="24.125" x2="76.3761" y2="-71.4518" gradientUnits="userSpaceOnUse">
<stop stop-color="#C0D3E5"/>
<stop offset="1" stop-color="white"/>
</linearGradient>
</defs>
</svg>
